<?xml version="1.0" encoding="UTF-8" standalone="no"?>
<!-- Created with Inkscape (http://www.inkscape.org/) -->

<svg
   width="130mm"
   height="130mm"
   viewBox="0 0 130 130"
   version="1.1"
   id="svg1"
   inkscape:version="1.4.2 (f4327f4, 2025-05-13)"
   sodipodi:docname="zoomIn.svg"
   xmlns:inkscape="http://www.inkscape.org/namespaces/inkscape"
   xmlns:sodipodi="http://sodipodi.sourceforge.net/DTD/sodipodi-0.dtd"
   xmlns="http://www.w3.org/2000/svg"
   xmlns:svg="http://www.w3.org/2000/svg">
  <sodipodi:namedview
     id="namedview1"
     pagecolor="#505050"
     bordercolor="#eeeeee"
     borderopacity="1"
     inkscape:showpageshadow="0"
     inkscape:pageopacity="0"
     inkscape:pagecheckerboard="0"
     inkscape:deskcolor="#505050"
     inkscape:document-units="mm"
     showborder="false"
     inkscape:zoom="0.71891835"
     inkscape:cx="396.42889"
     inkscape:cy="559.86886"
     inkscape:window-width="1920"
     inkscape:window-height="1009"
     inkscape:window-x="-8"
     inkscape:window-y="-8"
     inkscape:window-maximized="1"
     inkscape:current-layer="layer1" />
  <defs
     id="defs1" />
  <g
     inkscape:label="Layer 1"
     inkscape:groupmode="layer"
     id="layer1">
    <path
       style="fill:#000000"
       d="m 114.9633,129.56693 c -3.26432,-0.79012 -3.36229,-0.87561 -19.978302,-17.43402 l -15.57409,-15.520085 -2.68783,1.42271 c -4.88851,2.587565 -10.61709,4.515035 -16.53084,5.562075 -2.58711,0.45805 -13.66784,0.45817 -16.256,1.7e-4 C 28.982098,100.95154 16.669438,92.985985 8.5723878,80.719505 2.1545778,70.996945 -0.91125222,58.602665 0.26358778,47.129295 1.8980278,31.167385 10.238768,17.351565 23.616238,8.4473853 c 2.65525,-1.76736 7.98563,-4.40986 11.049,-5.47747 2.96827,-1.03446 7.50293,-2.13868004 10.541,-2.56680004 3.10517,-0.43757 10.86483,-0.43757 13.97,0 17.483,2.46368004 32.44221,13.35462974 39.98358,29.10976974 3.357812,7.015 5.016392,14.38552 5.029842,22.352 0.0149,8.80344 -1.72663,16.14915 -5.689042,23.99662 l -1.72817,3.42262 15.457592,15.50038 c 14.77784,14.818745 15.49895,15.585045 16.39809,17.425505 2.41594,4.94526 1.56302,10.27664 -2.25695,14.10754 -3.08564,3.09448 -7.20283,4.2672 -11.40788,3.24938 z M 58.922238,88.432355 c 15.22501,-2.93099 26.67158,-14.5078 29.62636,-29.96347 0.59765,-3.12612 0.59667,-9.58268 -0.002,-12.7 -2.08434,-10.85472 -8.10188,-19.64536 -17.30544,-25.28038 -3.50529,-2.14617 -7.95731,-3.83475 -12.45521,-4.72406 -3.15425,-0.62365 -10.03532,-0.62365 -13.18957,0 -15.22266,3.00978 -26.38402,14.00827 -29.64864,29.21601 -0.73927,3.4438 -0.79753,10.32694 -0.11624,13.73321 1.03245,5.16192 2.97772,9.90904 5.79169,14.13367 2.1009,3.1541 6.68542,7.73862 9.83952,9.83952 5.07202,3.37841 11.11755,5.57147 17.17245,6.22944 1.9859,0.2158 8.16125,-0.0747 10.287,-0.48394 z m -12.53066,-15.27381 c -0.0931,-0.0931 -0.16934,-3.63478 -0.16934,-7.87033 v -7.70099 l -7.8105,-0.0672 -7.8105,-0.0672 v -5.969 -5.969 l 7.80684,-0.0672 7.80683,-0.0672 0.0672,-7.80684 0.0672,-7.80683 h 5.969 5.969 l 0.0672,7.8105 0.0672,7.8105 h 7.74333 7.74333 v 6.096 6.096 h -7.874 -7.874 v 7.874 7.874 h -5.79967 c -3.18981,0 -5.87586,-0.0762 -5.969,-0.16934 z"
       id="path1" />
  </g>
</svg>
