<?xml version="1.0" encoding="UTF-8" standalone="no"?>
<!-- Created with Inkscape (http://www.inkscape.org/) -->

<svg
   width="130mm"
   height="130mm"
   viewBox="0 0 130 130"
   version="1.1"
   id="svg1"
   inkscape:version="1.4.2 (f4327f4, 2025-05-13)"
   xml:space="preserve"
   sodipodi:docname="zoomOut.svg"
   xmlns:inkscape="http://www.inkscape.org/namespaces/inkscape"
   xmlns:sodipodi="http://sodipodi.sourceforge.net/DTD/sodipodi-0.dtd"
   xmlns="http://www.w3.org/2000/svg"
   xmlns:svg="http://www.w3.org/2000/svg"><sodipodi:namedview
     id="namedview1"
     pagecolor="#505050"
     bordercolor="#eeeeee"
     borderopacity="1"
     inkscape:showpageshadow="0"
     inkscape:pageopacity="0"
     inkscape:pagecheckerboard="0"
     inkscape:deskcolor="#505050"
     inkscape:document-units="mm"
     showborder="false"
     inkscape:zoom="0.71891835"
     inkscape:cx="138.40237"
     inkscape:cy="180.13172"
     inkscape:window-width="1920"
     inkscape:window-height="1009"
     inkscape:window-x="-8"
     inkscape:window-y="-8"
     inkscape:window-maximized="1"
     inkscape:current-layer="layer1" /><defs
     id="defs1" /><g
     inkscape:label="Layer 1"
     inkscape:groupmode="layer"
     id="layer1"><path
       style="fill:#000000"
       d="m 115.30727,129.73941 c -0.62865,-0.12186 -2.00025,-0.63979 -3.048,-1.15095 -1.81503,-0.88549 -2.63705,-1.65925 -17.406575,-16.38489 l -15.501578,-15.455505 -3.421422,1.72758 c -7.853004,3.965195 -15.166856,5.695945 -23.995423,5.678285 -5.012727,-0.01 -8.443447,-0.44945 -13.208001,-1.69175 C 17.634888,96.962855 2.3935694,78.916225 0.24766837,56.901235 -1.2687266,41.344405 4.6206594,25.526695 15.993701,14.610575 21.731553,9.1032448 28.10597,5.2285948 35.483033,2.7640948 c 29.011489,-9.69206 59.831916,7.13985 67.227917,36.7150502 1.04662,4.18524 1.46759,7.73984 1.47237,12.43251 0.009,8.83564 -1.72433,16.15128 -5.685664,23.99662 l -1.728178,3.42262 15.457592,15.50038 c 14.82972,14.870765 15.49618,15.579345 16.40755,17.444635 2.4071,4.9266 1.56275,10.26368 -2.22263,14.04906 -3.00962,3.00962 -6.94732,4.22037 -11.10472,3.41444 z M 56.17881,88.841235 c 16.261554,-1.75104 29.226253,-13.89811 32.366824,-30.32558 0.597644,-3.12612 0.596665,-9.58268 -0.0019,-12.7 -1.594454,-8.30355 -5.29889,-15.11153 -11.257711,-20.68933 -5.062493,-4.73878 -11.296394,-7.87893 -18.502941,-9.32033 -3.40627,-0.6813 -10.289414,-0.62304 -13.733214,0.11624 -7.680408,1.64874 -13.507451,4.78889 -18.913949,10.19257 -5.440461,5.43763 -8.537154,11.16466 -10.171862,18.81185 -0.463879,2.17003 -0.572041,3.49527 -0.58046,7.112 -0.01145,4.91782 0.321428,7.19106 1.669031,11.398 5.356911,16.72318 21.629079,27.28867 39.126208,25.40458 z M 34.027271,51.530655 v -7.112 h 18.288001 18.288 v 7.112 7.112 h -18.288 -18.288001 z"
       id="path2" /></g></svg>
